<svg width="21" height="20" viewBox="0 0 21 20" fill="none" xmlns="http://www.w3.org/2000/svg">
<path d="M2.16663 14.1666V16.6666H8.83329V15.0916H3.74996V14.1666C3.74996 13.6333 6.35829 12.4166 8.83329 12.4166C9.63329 12.4249 10.425 12.5333 11.1916 12.7333L12.4583 11.4666C11.2916 11.0749 10.0833 10.8583 8.83329 10.8333C6.60829 10.8333 2.16663 11.9416 2.16663 14.1666ZM8.83329 3.33325C6.99163 3.33325 5.49996 4.82492 5.49996 6.66659C5.49996 8.50825 6.99163 9.99992 8.83329 9.99992C10.675 9.99992 12.1666 8.50825 12.1666 6.66659C12.1666 4.82492 10.675 3.33325 8.83329 3.33325ZM8.83329 8.33325C7.91663 8.33325 7.16663 7.59159 7.16663 6.66659C7.16663 5.74159 7.91663 4.99992 8.83329 4.99992C9.74996 4.99992 10.5 5.74992 10.5 6.66659C10.5 7.58325 9.75829 8.33325 8.83329 8.33325ZM18.5833 11.1249L17.75 11.9583L16.0416 10.2916L16.875 9.45825C16.9606 9.37427 17.0758 9.32723 17.1958 9.32723C17.3158 9.32723 17.431 9.37427 17.5166 9.45825L18.5833 10.5249C18.7583 10.6999 18.7583 10.9916 18.5833 11.1666M10.5 15.7833L15.55 10.7333L17.2583 12.3999L12.2583 17.4583H10.5V15.7833Z" fill="#FFD166" fill-opacity="0.8"/>
</svg>
