<svg width="20" height="21" viewBox="0 0 20 21" fill="none" xmlns="http://www.w3.org/2000/svg">
<path d="M16.6666 10.5001C16.6666 12.2682 15.9642 13.9639 14.714 15.2142C13.4638 16.4644 11.7681 17.1668 9.99996 17.1668C8.23185 17.1668 6.53616 16.4644 5.28591 15.2142C4.03567 13.9639 3.33329 12.2682 3.33329 10.5001C3.33329 8.73201 4.03567 7.03632 5.28591 5.78607C6.53616 4.53583 8.23185 3.83345 9.99996 3.83345C10.6333 3.83345 11.25 3.92512 11.8333 4.09179L13.1416 2.78345C12.1452 2.37309 11.0776 2.16353 9.99996 2.16679C8.90561 2.16679 7.82198 2.38233 6.81093 2.80112C5.79988 3.21991 4.88122 3.83374 4.1074 4.60756C2.5446 6.17037 1.66663 8.28998 1.66663 10.5001C1.66663 12.7103 2.5446 14.8299 4.1074 16.3927C4.88122 17.1665 5.79988 17.7803 6.81093 18.1991C7.82198 18.6179 8.90561 18.8335 9.99996 18.8335C12.2101 18.8335 14.3297 17.9555 15.8925 16.3927C17.4553 14.8299 18.3333 12.7103 18.3333 10.5001M6.59163 8.90012L5.41663 10.0835L9.16663 13.8335L17.5 5.50012L16.325 4.31679L9.16663 11.4751L6.59163 8.90012Z" fill="#D6D6D6"/>
</svg>
